P1
# CREATOR: GIMP PNM Filter Version 1.1
152 86
0000000000000000000000000000000000000000000000000000000000000000000000
0000000000000000000000000000000000000000000000000000000000000000000000
0000000000000000000000000000000000000000000000000000000000000000000000
0000000000000000000000000000000000000000000000000000000000000000000000
0000000000000000000000000000000000000000000000000000000000000000000000
0000000000000000000000000000000000000000000000000000000000000000000000
0000000000000000000000000000000000000000000000000000000000000000000000
0000000000000000000000000000000000000000000000000000000000000000000000
0000000000000000000000000000000000000000000000000000000000000000000000
0000000000000000000000000000000000000000000000000000000000011111111111
1101000000000000000000000000000000000000000000000000000000000000000000
0000000000000000000000000000000000000000000000000000000000000000000011
1000000000000101110000000000000000000000000000000000000000000000000000
0000000000000000000000000000000000000000000000000000000000000000000000
0000000110000101010101010010101100000000000000000000000000000000000000
0000000000000000000000000000000000000000000000000000000000000000000000
0000000000000000111000001001001001001001001011000000000000000000000000
0000000000000000000000000000000000000000000000000000000000000000000000
0000000000000000000000000011000000000100100100100100100100100000000000
0000000000000000000000000000000000000000000000000000000000000000000000
0000000000000000000000000000000000000100000000000010010010010010010010
1100000000000000000000000000000000000000000000000000000000000000000000
0000000000000000000000000000000000000000000000011000000000000010100100
1001001001001011000000000000000000000000000000000000000000000000000000
0000000000000000000000000000000000000000000000000000000011100000000000
1011111110100100100101001001100000000000000000000000000000000000000000
0000000000000000000000000000000000000000000000000000000000000000011100
0000000111110000000001110010010000100100110000000000000000000000000000
0000000000000000000000000000000000000000000000000000000000000000000000
0000000101000011110000000000000000001101001010010010011000000000000000
0000000000000000000000000000000000000000000000000000000000000000000000
0000000000000000000001111000000000000000000000000110101001001001000100
0000000000000000000000000000000000000000000000000000000000000000000000
0000000000000000000000000000000000000000000000000000000000000001101001
0010010101100000000000000000000000000000000000000000000000000000000000
0000000000000000000000000000000000000000000000000000000000000000000000
0000001100101001001000100000000000000000000000000000000000000000000000
0000000000000000000000000000000000000000000000000000000000000000000000
0000000000000000000010001001001010110000000000000000000000000000000000
0000000000000000000000000000000000000000000000000000000000000000000000
0000000000000000000000000000000011010010010010011000000000000000000000
0000000000000000000000000000000000000000000000000000000000000000000000
0000000000000000000000000000000000000000000001001001001001001000000000
0000000000000000000000000000000000000000000000000000000000000000000000
0000000000000000000000000000000000000000000000000000000000110100100100
1010000000000000000000000000000000000000000000000000000000000000000000
0000000000000000000000000000000000000000000000000000000000000000000000
0100100100100011000000000000000000000000000000000000000000000000000000
0000000000000000000000000000000000000000000000000000000000000000000000
0000000000000101001001010101000000000000000000000000000000000000000000
0000000000000000000000000000000000000000000000000000000000000000000000
0000000000000000000000000010100100010001100000000000000000000000000000
0000000000000000000000000000000000000000000000000000000000000000000000
0000000000000000000000000000000000000011001001001010100000000000000000
0000000000000000000000000000000000000000000000000000000000000000000000
0000000000000000000000000000000000000000000000000010100101001000100000
0000000000000000000000000000000000000000000000000000000000000000000000
0000000000000000000000000000000000000000000000000000000000000001010000
1001010000000000000000000000000000000000000000000000000000000000000000
0000000000000000000000000000000000000000000000000000000000000000000000
0000010010100100010100000000000000000000000000000000000000000000000000
0000000000000000000000000000000000000000000000000000000000000000000000
0000000000000000010100101010101100000000000000000000000000000000000000
0000000000000000000000000000000000000000000000000000000000000000000000
0000000000000000000000000000010010000010000100000000000000000000000000
0000000000000000000000000000000000000000000000000000000000000000000000
0000000000000000000000000000000000000000010101010100101100000000000000
0000000000000000000000000000000000000000000000000000000000000000000000
0000000000000000000000000000101111100000000000000000110000100010100100
0000000000000000000000000000000000000000000000000000000000000000000000
0000000000000000000000000000000000011111101001011111000000000000101010
0101000101000000000000000000000000000000000000000000000000000000000000
0000000000000000000000000000000000000000000011100000100100100010111000
0000011000101000101011000000000000000000000000000000000000000000000000
0000000000000000000000000000000000000000000000000000001110101010010010
0101001011110000010101000101000101000000000000000000000000000000000000
0000000000000000000000000000000000000000000000000000000000000000110000
0100100100101000100000011000100100100100100101000000000000000000000000
0000000000000000000000000000000000000000000000000000000000000000000000
0000111010101001010010000101010101001111101001010010010010000000000000
0000000000000000000000000000000000000000000000000000000000000000000000
0000000000000001100100100100001001010100000100100001100100001001001010
0000000000000000000000000000000000000000000000000000000000000000000000
0000000000000000000000000110010010010010100100100010101001010101110010
1001001000100000000000000000000000000000000000000000000000000000000000
0000000000000000000000000000000000000101001001001010010100101001001010
0010000110100100101010100000000000000000000000000000000000000000000000
0000000000000000000000000000000000001110000000011110110100100001000100
0100100100010100101011010010000100100000000000000000000000000000000000
0000000000000000000000000000000000000000000000110101110011101010101111
1101010100100100100101000101001001101001010010100000000000000000000000
0000000000000000000000000000000000000000000000000000000001001000011100
0100100100010111001111111010010001010000100100110010010101000000000000
0000000000000000000000000000000000000000000000000000000000000000000010
1010111101010010100101001001110110101101001001001010010010011001000011
0000000000000000000000000000000000000000000000000000000000000000000000
0000000000100001011010010100010000100101110001001011010100100100100101
0110101010010000000000000000000000000000000000000000000000000000000000
0000000000000000000000110101100001000101001010010100110100100101000010
0100100100010011000010100000000000000000000000000000000000000000000000
0000000000000000000000000000000000100011010100101000100100100011001011
1110111010010010010010100101101001100000000000000000000000000000000000
0000000000000000000000000000000000000000000000110110010010001010010100
1010010011010011001001001001001000100101010101000000000000000000000000
0000000000000000000000000000000000000000000000000000000000100111101001
0100010000100001010101001001011010010100100101001001100011000000000000
0000000000000000000000000000000000000000000000000000000000000000000000
0110001001000101010111111110010010101010101010100010010100100100101010
0000000000000000000000000000000000000000000000000000000000000000000000
0000000000000010001100101000010100000011001011000100010000010100100010
0100101101000000000000000000000000000000000000000000000000000000000000
0000000000000000000000000100001010001010011000000001010001100101011101
0100100100100100101111000000000000000000000000000000000000000000000000
0000000000000000000000000000000000000100001101010010110000000000101011
1010011100000010010010010010000110000000000000000000000000000000000000
0000000000000000000000000000000000000000000000000100011011110100010000
0000001000001111111001101001001001001001010100000000000000000000000000
0000000000000000000000000000000000000000000000000000000000001001110100
0011110100001000001101000001010100010100100100100101000100000000000000
0000000000000000000000000000000000000000000000000000000000000000000000
0011000000000000001100000000000101010100010101000010010010010001010100
0000000000000000000000000000000000000000000000000000000000000000000000
0000000000000100000000000000000011000000001100101010101001010101001001
0010100001000000000000000000000000000000000000000000000000000000000000
0000000000000000000000011000000000000000000000110000001010000001001100
0100001001010100010101100000000000000000000000000000000000000000000000
0000000000000000000000000000000000100000000000000000000000001100001001
0101001010010010100100001001001000100000000000000000000000000000000000
0000000000000000000000000000000000000000000001000000000000000000000000
0000110101001001010011001001010010100101001010100000000000000000000000
0000000000000000000000000000000000000000000000000000000001000000000000
0000000000000000001110100100001010010100010100101010100010100000000000
0000000000000000000000000000000000000000000000000000000000000000000010
0000000000000000000000000000000010010010101001000101000010000011010010
1000000000000000000000000000000000000000000000000000000000000000000000
0000000000100000100000001000000000000000000001101001000100101001010101
0101100101001000000000000000000000000000000000000000000000000000000000
0000000000000000000000100000010000010000000000000000000000100100100101
0001000100001001110001010000000000000000000000000000000000000000000000
0000000000000000000000000000000000000000000000000000000000000000000000
1100100100001010010010100101001000010000000000000000000000000000000000
0000000000000000000000000000000000000000000000010000001000000000000000
0000000000001010010010101001010100100110100101010000000000000000000000
0000000000000000000000000000000000000000000000000000000000001111100111
0000000000000000000000001100101010000100110010010110010100010000000000
0000000000000000000000000000000000000000000000000000000000000000000000
0000100111111110000000000000001110001101000010100100111010010110100010
1100000000000000000000000000000000000000000000000000000000000000000000
0000000000000000101111111011110000000001111000000000101001010010011001
0110000101001000000000000000000000000000000000000000000000000000000000
0000000000000000000000000000011011111000101111011111010000011010100100
0010010011001110101001011000000000000000000000000000000000000000000000
0000000000000000000000000000000000000000001111111010010001010000110000
1100000100101001001010111000100100001000000000000000000000000000000000
0000000000000000000000000000000000000000000000000000010011111001001010
1101101000001011010010100101001010101100100101010000000000000000000000
0000000000000000000000000000000000000000000000000000000000000000011101
1110100100010100110000110000110100010000100111000110010010010000000000
0000000000000000000000000000000000000000000000000000000000000000000000
0000001000100110100101000101100000101010001101001010010010000010011110
1100000000000000000000000000000000000000000000000000000000000000000000
0000000000000000001010110011111101111110000011010001010110101001001010
0000101100011000000000000000000000000000000000000000000000000000000000
0000000000000000000000000000001101010000000100000000000111111111111011
0001010010100000011000001000000000000000000000000000000000000000000000
0000000000000000000000000000000000000000001000101100000000000000001000
0000000000011010001000100000001001110000000000000000000000000000000000
0000000000000000000000000000000000000000000000000000011010100110000000
0000001100000000000000001101011010100000000010000000000000000000000000
0000000000000000000000000000000000000000000000000000000000000000011111
0100111111000101100000000000000000000010100111100000000000000000000000
0000000000000000000000000000000000000000000000000000000000000000000000
0000001000011111100000111100000000000000000000000011000001100000000000
0000000000000000000000000000000000000000000000000000000000000000000000
0000000000000000001000110000000000000000000000000000000000000000100000
1000000000000000000000000000000000000000000000000000000000000000000000
0000000000000000000000000000000011000000000000000000000000000000000000
0000000110110000000000000000000000000000000000000000000000000000000000
0000000000000000000000000000000000000000000000000000000000000000000000
0000000000000000000000000000000000000000000000000000000000000000000000
0000000000000000000000000000000000000000000000000000000000000000000000
0000000000000000000000000000000000000000000000000000000000000000000000
0000000000000000000000000000000000000000000000000000000000000000000000
0000000000000000000000000000000000000000000000000000000000000000000000
0000000000000000000000000000000000000000000000000000000000000000000000
0000000000000000000000000000000000000000000000000000000000000000000000
0000000000000000000000000000000000000000000000000000