P1
# CREATOR: GIMP PNM Filter Version 1.1
152 129
0000000000000000000000000000000000000000000000000000000000000000000000
0000000000000000000000000000000000000000000000000000000000000000000000
0000000000000000000000000000000000000000000000000000000000000000000000
0000000000000000010000000000000000000000000000000000000000000000000000
0000000000000000000000000000000000000000000000000000000000000000000000
0000000000000000000000000000111000000000000000000000000000000000000000
0000000000000000000000000000000000000000000000000000000000000000000000
0000000000000000000000000000000000000000011000000000000000000000000000
0000000000000000000000000000000000000000000000000000000000000000000000
0000000000000000000000000000000000000000000000000000110000000000000000
0000000000000000000000000000000000000000000000000000000000000000000000
0000000000000000000000000000000000000000000000000000000000000000111000
0000000000000000000000000000000000000000000000000000000000000000000000
0000000000000000000000000000000000000000000000000000000000000000000000
0000000100000000000000000000000000000000000000000000000000000000000000
0000000000000000000000000000000000000000000000000000000000000000000000
0000000000000000001110000000000000000000000000000000000000000000000000
0000000000000000000000000000000000000000000000000000000000000000000000
0000000000000000000000000000000110000000000000000000000000000000000000
0000000000000000000000000000000000000000000000000000000000000000000000
0000000000000000000000000000000000000000000110000000000000000000000000
0000000000000000000000000000000000000000000000000000000000000000000000
0000000000000000000000000000000000000000000000000000001100000000000000
0000000000000000000000000000000000000000000000000000000000000000000000
0000000000000000000000000000000000000000000000000000000000000000000100
0000000000000000000000000000000000000000000000000000000000000000000000
0000000000000000000000000000000000000000000000000000001000000000000000
0000000111100000000000000000000000100000000000000000000000000000000000
0000000000000000000000000000000000000000000000000000000000000000011100
0000000000000011111111111111100000000000000001110000000000000000000000
0000000000000000000000000000000000000000000000000000000000000000000000
0000000011100000000000011111111111111111111100000000000011100000000000
0000000000000000000000000000000000000000000000000000000000000000000000
0000000000000000000001110000000001111111000000000000111111000000000111
0000000000000000000000000000000000000000000000000000000000000000000000
0000000000000000000000000000000000111000000111110000000000000000000111
1000000011100000000000000000000000000000000000000000000000000000000000
0000000000000000000000000000000000000000000000011100001111000000000000
0000000000011110000111000000000000000000000000000000000000000000000000
0000000000000000000000000000000000000000000000000000000000001110011110
0000000000000000000000001111001110000000000000000000000000000000000000
0000000000000000000000000000000000000000000000000000000000000000000000
0001111110000000000000000000000000000011101100000000000000000000000000
0000000000000000000000000000000000000000000000000000000000000000000000
0000000000000000011100000000000000000000000000000001110000000000000000
0000000000000000000000000000000000000000000000000000000000000000000000
0000000000000000000000000000111000000000000000000000000000000000111100
0000000000000000000000000000000000000000000000000000000000000000000000
0000000000000000000000000000000000000001110000000000000000000000000000
0000000111000000000000000000000000000000000000000000000000000000000000
0000000000000000000000000000000000000000000000000011100000000000000000
0000000000000000000011100000000000000000000000000000000000000000000000
0000000000000000000000000000000000000000000000000000000000000111000000
0000000000000000000000000000000001110000000000000000000000000000000000
0000000000000000000000000000000000000000000000000000000000000000000000
0001110000000000000000000000000000000000000001110000000000000000000000
0000000000000000000000000000000000000000000000000000000000000000000000
0000000000000011100000000000000000000000000000000000000000111000000000
0000000000000000000000000000000000000000000000000000000000000000000000
0000000000000000000000000011000000000000000000000000000000000000000000
0110000000000000000000000000000000000000000000000000000000000000000000
0000000000000000000000000000000000000111000000000000000000000000000000
0000000000000111000000000000000000000000000000000000000000000000000000
0000000000000000000000000000000000000000000000000110000000000000000000
0000000000000000000000000011000000000000000000000000000000000000000000
0000000000000000000000000000000000000000000000000000000000000110000000
0000000000000000000000000000000000000011000000000000000000000000000000
0000000000000000000000000000000000000000000000000000000000000000000000
0011100000000000000000000000000000000000000000000011100000000000000000
0000000000000000000000000000000000000000000000000000000000000000000000
0000000000000011000000000000000000000000000000000000000000000011100000
0000000000000000000000000000000000000000000000000000000000000000000000
0000000000000000000000000011000000000000000000000000000000000000000000
0000011000000000000000000000000000000000000000000000000000000000000000
0000000000000000000000000000000000000011000000000000000000000000000000
0000000000000000011000000000000000000000000000000000000000000000000000
0000000000000000000000000000000000000000000000000111000000000000000000
0000000000000000000000000000011000000000000000000000000000000000000000
0000000000000000000000000000000000000000000000000000000000000111000000
0000000000000000000000000000000000000000011100000000000000000000000000
0000000000000000000000000000000000000000000000000000000000000000001001
0000110000000000000000000000000000000000000000000000011100000000000000
0000000000000000000000000000000000000000000000000000000000000000000000
0000111111111111100000000000000000000000000000000000000000000000011011
1111111110000000000000000000000000000000000000000000000000000000000000
0000000000000000111111111101110000000000000000000000000000000000000000
0000000111011111111110000000000000000000000000000000000000000000000000
0000000000000000000000000000000000000001110000000000000000000000000000
0000000000000000000110000000000000000000000000000000000000000000000000
0000000000000000000000000000000000000000000000000000110000000000000000
0000000000000000000000000000000111000000000000000000000000000000000000
0000000000000000000000000000000000000000000000000000000000000000110000
0000000000000000000000000000000000000000000110000000000000000000000000
0000000000000000000000000000000000000000000000000000000000000000000000
0000001100000000000000000000000000000000000000000000000110000000000000
0000000000000000000000000000000000000000000000000000000000000000000000
0000000000000000001100000000000000000000000000000000000000000000001110
0000000000000000000000000000000000000000000000000000000000000000000000
0000000000000000000000000000001110000000000000000000000000000000000000
0000000011100000000000000000000000000000000000000000000000000000000000
0000000000000000000000000000000000000000000110000000000000000000000000
0000000000000000000011000000000000000000000000000000000000000000000000
0000000000000000000000000000000000000000000000000000000110000000000000
0000000000000000000000000000000111000000000000000000000000000000000000
0000000000000000000000000000000000000000000000000000000000000000000111
0000000000000000000000000000000000000000000111000000000000000000000000
0000000000000000000000000000000000000000000000000000000000000000000000
0000000000110000000000000000000000000000000000000000000110000000000000
0000000000000000000000000000000000000000000000000000000000000000000000
0000000000000000000000111000000000000000000000000000000000000000001110
0000000000000000000000000000000000000000000000000000000000000000000000
0000000000000000000000000000000000011100000000000000000000000000000000
0000000111000000000000000000000000000000000000000000000000000000000000
0000000000000000000000000000000000000000000000011100000000000000000000
0000000000000000000110000000000000000000000000000000000000000000000000
0000000000000000000000000000000000000000000000000000000000001110000000
0000000000000000000000000000001110000000000000000000000000000000000000
0000000000000000000000000000000000000000000000000000000000000000000000
0001110000000000000000000000000000000000011100000000000000000000000000
0000000000000000000000000000000000000000000000000000000000000000000000
0000000000000000111000000000000000000000000000000000111000000000000000
0000000000000000000000000000000000000000000000000000000000000000000000
0000000000000000000000000000011100000000000000000000000000000001110000
0000000000000000000000000000000000000000000000000000000000000000000000
0000000000000000000000000000000000000001101110000000000000000000000000
0000111111000000000000000000000000000000000000000000000000000000000000
0000000000000000000000000000000000000000000000000011100111100000000000
0000000000000011110011100000000000000000000000000000000000000000000000
0000000000000000000000000000000000000000000000000000000000000111000011
1100000000000000000000000111100001110000000000000000000000000000000000
0000000000000000000000000000000000000000000000000000000000000000000000
0011100000001111000000000000000000111110000000111000000000000000000000
0000000000000000000000000000000000000000000000000000000000000000000000
0000000000000111000000000111111100000000000011111100000000011100000000
0000000000000000000000000000000000000000000000000000000000000000000000
0000000000000000000000001110000000000001111111111111111111110000000000
0011100000000000000000000000000000000000000000000000000000000000000000
0000000000000000000000000000000000011100000000000000000111111111111110
0000000000000001110000000000000000000000000000000000000000000000000000
0000000000000000000000000000000000000000000000001000000000000000000000
0101010000000000000000000000100000000000000000000000000000000000000000
0000000000000000000000000000000000000000000000000000000000000000000000
0000000000000001000000000000000000000000000000000000000000000000000000
0000000000000000000000000000000000000000000000000000000000000000000000
0000000000000000000000000011100000000000000000000000000000000000000000
0000000000000000000000000000000000000000000000000000000000000000000000
0000000000000000000000000000000000000001100000000000000000000000000000
0000000000000000000000000000000000000000000000000000000000000000000000
0000000000000000000000000000000000000000000000000011000000000000000000
0000000000000000000000000000000000000000000000000000000000000000000000
0000000000000000000000000000000000000000000000000000000000000011100000
0000000000000000000000000000000000000000000000000000000000000000000000
0000000000000000000000000000000000000000000000000000000000000000000000
0000011000000000000000000000000000000000000000000000000000000000000000
0000000000000000000000000000000000000000000000000000000000000000000000
0000000000000000011000000000000000000000000000000000000000000000000000
0000000000000000000000000000000000000000000000000000000000000000000000
0000000000000000000000000000110000000000000000000000000000000000000000
0000000000000000000000000000000000000000000000000000000000000000000000
0000000000000000000000000000000000000000111000000000000000000000000000
0000000000000000000000000000000000000000000000000000000000000000000000
0000000000000000000000000000000000000000000000000000010000000000000000
0000000000000000000000000000000000000000000000000000000000000000000000
0000000000000000000000000000000000000000000000000000000000000000110000
0000000000000000000000000000000000000000000000000000000000000000000000
0000000000000000000000000000000000000000000000000000000000000000000000
0000000000000000000000000000000000000000000000000000000000000000000000
0000000000000000000000000000000000000000000000000000000000000000000000
0000000000000000000000000000000000000000000000000000000000000000000000
0000000000000000000000000000000000000000000000000000000000000000000000
0000000000000000000000000000000000000000000000000000000000000000000000
0000000000000000000000000000000000000000000000000000000000000000000000
0000000000000000000000000000000000000000000000000000000000000000000000
0000000000000000000000000000000000000000000000000000000000000000000000
0000000000000000000000000000000000000000000000000000000000000000000000
0000000000000000000000000000000000000000000000000000000000000000000000
0000000000000000000000000000000000000000000000000000000000000000000000
0000000000000000000000000000000000000000000000000000000000000000000000
0000000000000000000000000000000000000000000000000000000000000000000000
0000000000000000000000000000000000000000000000000000000000000000000000
0000000000000000000000000000000000000000000000000000000000000000000000
0000000000000000000000000000000000000000000000000000000000000000000000
0000000000000000000000000000000000000000000000000000000000000000000000
0000000000000000000000000000000000000000000000000000000000000000000000
0000000000000000000000000000000000000000000000000000000000000000000000
0000000000000000000000000000000000000000000000000000000000000000000000
0000000000000000000000000000000000000000000000000000000000000000000000
0000000000000000000000000000000000000000000000000000000000000000000000
0000000000000000000000000000000000000000000000000000000000000000000000
0000000000000000000000000000000000000000000000000000000000000000000000
0000000000000000000000000000000000000000000000000000000000000000000000
0000000000000000000000000000000000000000000000000000000000000000000000
0000000000000000000000000000000000000000000000000000000000000000000000
0000000000000000000000000000000000000000000000000000000000000000000000
0000000000000000000000000000000000000000000000000000000000000000000000
0000000000000000000000000000000000000000000000000000000000000000000000
0000000000000000000000000000000000000000000000000000000000000000000000
0000000000000000000000000000000000000000000000000000000011111100000000
0000000011000000000000000000000000000000000111000000111000000000000000
0000000000000000000000000000000000000000000000000000000000000000001111
1111100000000000000011000000000000000000000000000000000111100001111000
0000000000000000000000000000000000000000000000000000000000000000000000
0000000111100000100000000000000011000000000000000000000000000000000111
1000011110000000000000000000000000000000000000000000000000000000000000
0000000000000000001110000000000001100001100111111000011111000011011110
0000000001101100110110000001111000001101110001111011000001111100001101
1110000000000000000000000000001100000000000001100001100111111001111111
1000111111100000000001101100110110000111111110001111110011111111000111
1111100011111110000000000000000000000000001100001111100001100001100011
0000011000011100111001110000000001101100110110001110001111001110000111
0001110001100001110011100111000000000000000000000000001100001111100001
1000011000110000111000001100110000110000000001100111100110001110000011
0011000001100000110011100000110011000011000000000000000000000000001100
0000011000011000011000110000111111111100110000110000000001100111100110
0011000000110011000001100000110011111111110011000011000000000000000000
0000000011000000011000011000011000110000111111111100110000110000000001
1000110001100011000000110011000001100000110011111111110011000011000000
0000000000000000000001100000011000011000011000110000110000000000110000
1100000000011000110001100011000001110011000001100001110011000000000011
0000110000000000000000000000000001110000111000011100111000110000111100
0001001100001100000000011000000001100011110001110011000001110001110011
1100000100110000110000000000000000000000000000111111111000001111111000
1111100111111111001100001100000000011000000001100001111111100011000000
1111111100011111111100110000110001100000000000000000000000011111100000
0011110110000111100001111110001100001100000000011000000001100000011110
0000110000000111101100000111111000110000110001100000000000000000000000
0000000000000000000000000000000000000000000000000000000000000000000000
0000000000000000000000000000001100000000000000000000000011000000000000
0000000000000000000000000000000000000000000000000000000000000000000000
0000000000000000000000000000000000001000111000000000000000000000000010
0000000000000000000000000000000000000000000000000000000000000000000000
0000000000000000000000000000000000000000000000001111111000000000000000
0000000000000000000000000000000000000000000000000000000000000000000000
0000000000000000000000000000000000000000000000000000000000000111110000
0000000000000000000000000000000000000000000000000000000000000000000000
0000000000000000000000000000000000000000000000000000000000000000000000
0000000000000000000000000000000000000000000000000000000000000000000000
0000000000000000000000000000000000000000000000000000000000000000000000
0000000000000000000000000000000000000000000000000000000000000000000000
0000000000000000000000000000000000000000000000000000000000000000000000
0000000000000000000000000000000000000000000000000000000000000000000000
0000000000000000000000000000000000000000000000000000000000000000000000
0000000000000000000000000000011000000000000000000001100000000000000000
0000000000000000000000000000011111000000000000000000000000000000000000
0000000000000000000000000000000000000000011000000000000000000001100000
0000000000110000000000000000000000000000111111100000000000000000000000
0000000000000000000000000000000000000000000000000000011000000000000000
0000000000000000000000110000000000000000000000000001110000100000000000
0000000000000000000000000000000000000000000000000000000000000000011000
0000000000000000000000000000000000110000000000000000000000000001100000
0000000111100000110111100001101111000000111110000110111100001111100000
1111000110111100000011111000011000110111100000110000000000000000000000
0000011100000000011111111000111111100001111111000011111111000111111100
0111111100111111100111111100001111111100011000111111100000110000000000
0000000000000000001111100000111100011100111001110001110011100011000011
1001110011100111000101111000100111001110001100001110011000111001110000
1100000000000000000000000000000111111000110000011100110000110001100001
1001100000011001100001100111010001100000000110000110011000000110011000
1100001100001100000000000000000000000000000000011100110000001100110000
1100011000011001111111111001100001100011111001100000000110000110011111
1111100110001100001100001100000000000000000000000000000000001100110000
0011001100001100011000011001111111111001100001100000111101100000000110
0001100111111111100110001100001100001100000000000000000000000000000000
0011001100000111001100001100011000011001100000000001100001100000001101
1100000001100001100110000000000110001100001100000000000000000000000000
0000000110001111001111000111001100001100011000011000111000011001100001
1001000111001100001001100001100011100001100110001100001100000000000000
0000000000000000000111111110000111111110001100001100011000011000111111
1110011000011001111111001111111001100001100011111111100110001100001100
0011000000000000000000000000000011111100000001111000001100001100011000
0110000011111100011000011000111110000111110001100001100000111111000110
0011000011000011000000000000000000000000000000000000000000000000000000
0000000000000000000000000000000000000000000000000000000000000000000000
0000000000000000000000000000000000000000000000000000000000000000000000
0000000000000000000000000000000000000000000000000000000000000000000000
0000000000000000000000000000000000000000000000000000000000000000000000
0000000000000000000000000000000000000000000000000000000000000000000000
0000000000000000000000000000000000000000000000000000000000000000000000
0000000000000000000000000000000000000000000000000000000000000000000000
0000000000000000000000000000000000000000000000000000000000000000000000
00000000